<mxfile host="65bd71144e">
    <diagram id="MDd6D5mPbVnk4tKIov8Z" name="페이지-1">
        <mxGraphModel dx="1432" dy="625" grid="1" gridSize="10" guides="1" tooltips="1" connect="1" arrows="1" fold="1" page="1" pageScale="1" pageWidth="827" pageHeight="1169" math="0" shadow="0">
            <root>
                <mxCell id="0"/>
                <mxCell id="1" parent="0"/>
                <mxCell id="17" value="" style="rounded=0;whiteSpace=wrap;html=1;" vertex="1" parent="1">
                    <mxGeometry x="380" y="80" width="300" height="40" as="geometry"/>
                </mxCell>
                <mxCell id="2" value="kr" style="rounded=0;whiteSpace=wrap;html=1;" vertex="1" parent="1">
                    <mxGeometry x="250" y="80" width="60" height="40" as="geometry"/>
                </mxCell>
                <mxCell id="3" value="kospi" style="rounded=0;whiteSpace=wrap;html=1;" vertex="1" parent="1">
                    <mxGeometry x="310" y="80" width="70" height="40" as="geometry"/>
                </mxCell>
                <mxCell id="4" value="" style="rounded=0;whiteSpace=wrap;html=1;" vertex="1" parent="1">
                    <mxGeometry x="20" y="120" width="740" height="360" as="geometry"/>
                </mxCell>
                <mxCell id="6" value="종목명" style="rounded=0;whiteSpace=wrap;html=1;" vertex="1" parent="1">
                    <mxGeometry x="30" y="130" width="80" height="40" as="geometry"/>
                </mxCell>
                <mxCell id="7" value="1 hour 예측" style="rounded=0;whiteSpace=wrap;html=1;" vertex="1" parent="1">
                    <mxGeometry x="110" y="130" width="80" height="40" as="geometry"/>
                </mxCell>
                <mxCell id="8" value="1 day 예측" style="rounded=0;whiteSpace=wrap;html=1;" vertex="1" parent="1">
                    <mxGeometry x="190" y="130" width="80" height="40" as="geometry"/>
                </mxCell>
                <mxCell id="9" value="2 day 예측" style="rounded=0;whiteSpace=wrap;html=1;" vertex="1" parent="1">
                    <mxGeometry x="270" y="130" width="80" height="40" as="geometry"/>
                </mxCell>
                <mxCell id="10" value="전체 모델" style="rounded=0;whiteSpace=wrap;html=1;" vertex="1" parent="1">
                    <mxGeometry x="460" y="85" width="70" height="30" as="geometry"/>
                </mxCell>
                <mxCell id="12" value="섹터별 모델" style="rounded=0;whiteSpace=wrap;html=1;" vertex="1" parent="1">
                    <mxGeometry x="600" y="85" width="70" height="30" as="geometry"/>
                </mxCell>
                <mxCell id="13" value="시장별 모델" style="rounded=0;whiteSpace=wrap;html=1;" vertex="1" parent="1">
                    <mxGeometry x="530" y="85" width="70" height="30" as="geometry"/>
                </mxCell>
                <mxCell id="14" value="3 day 예측" style="rounded=0;whiteSpace=wrap;html=1;" vertex="1" parent="1">
                    <mxGeometry x="350" y="130" width="80" height="40" as="geometry"/>
                </mxCell>
                <mxCell id="15" value="4 day 예측" style="rounded=0;whiteSpace=wrap;html=1;" vertex="1" parent="1">
                    <mxGeometry x="430" y="130" width="80" height="40" as="geometry"/>
                </mxCell>
                <mxCell id="18" value="" style="rounded=0;whiteSpace=wrap;html=1;" vertex="1" parent="1">
                    <mxGeometry x="20" y="80" width="160" height="40" as="geometry"/>
                </mxCell>
                <mxCell id="19" value="예측" style="rounded=0;whiteSpace=wrap;html=1;" vertex="1" parent="1">
                    <mxGeometry x="30" y="85" width="70" height="30" as="geometry"/>
                </mxCell>
                <mxCell id="21" value="live" style="rounded=0;whiteSpace=wrap;html=1;" vertex="1" parent="1">
                    <mxGeometry x="100" y="85" width="70" height="30" as="geometry"/>
                </mxCell>
                <mxCell id="22" value="1 week 예측" style="rounded=0;whiteSpace=wrap;html=1;" vertex="1" parent="1">
                    <mxGeometry x="510" y="130" width="80" height="40" as="geometry"/>
                </mxCell>
                <mxCell id="23" value="1 month 예측" style="rounded=0;whiteSpace=wrap;html=1;" vertex="1" parent="1">
                    <mxGeometry x="590" y="130" width="80" height="40" as="geometry"/>
                </mxCell>
                <mxCell id="24" value="1 year 예측" style="rounded=0;whiteSpace=wrap;html=1;" vertex="1" parent="1">
                    <mxGeometry x="670" y="130" width="80" height="40" as="geometry"/>
                </mxCell>
                <mxCell id="25" value="관심종목" style="rounded=0;whiteSpace=wrap;html=1;" vertex="1" parent="1">
                    <mxGeometry x="180" y="80" width="70" height="40" as="geometry"/>
                </mxCell>
                <mxCell id="26" value="로그인" style="rounded=0;whiteSpace=wrap;html=1;" vertex="1" parent="1">
                    <mxGeometry x="700" y="80" width="60" height="40" as="geometry"/>
                </mxCell>
                <mxCell id="28" value="예측은 오를 가능성 (백분율)&lt;br&gt;오르는 폭 예측 (백분율)" style="text;html=1;strokeColor=none;fillColor=none;align=left;verticalAlign=middle;whiteSpace=wrap;rounded=0;" vertex="1" parent="1">
                    <mxGeometry x="20" y="20" width="140" height="40" as="geometry"/>
                </mxCell>
                <mxCell id="30" value="머신러닝 분석" style="text;html=1;strokeColor=none;fillColor=none;align=center;verticalAlign=middle;whiteSpace=wrap;rounded=0;" vertex="1" parent="1">
                    <mxGeometry x="384" y="85" width="76" height="30" as="geometry"/>
                </mxCell>
            </root>
        </mxGraphModel>
    </diagram>
</mxfile>